<?xml version="1.0" encoding="UTF-8" standalone="no"?>
<svg
   xmlns:dc="http://purl.org/dc/elements/1.1/"
   xmlns:cc="http://creativecommons.org/ns#"
   xmlns:rdf="http://www.w3.org/1999/02/22-rdf-syntax-ns#"
   xmlns:svg="http://www.w3.org/2000/svg"
   xmlns="http://www.w3.org/2000/svg"
   viewBox="0 0 687.5 500"
   height="500"
   width="687.5"
   xml:space="preserve"
   version="1.1"
   id="svg2"><metadata
     id="metadata8"><rdf:RDF><cc:Work
         rdf:about=""><dc:format>image/svg+xml</dc:format><dc:type
           rdf:resource="http://purl.org/dc/dcmitype/StillImage" /></cc:Work></rdf:RDF></metadata><defs
     id="defs6"><clipPath
       id="clipPath16"
       clipPathUnits="userSpaceOnUse"><path
         id="path18"
         d="M 0,400 550,400 550,0 0,0 0,400 Z" /></clipPath></defs><g
     transform="matrix(1.25,0,0,-1.25,0,500)"
     id="g10"><g
       id="g12"><g
         clip-path="url(#clipPath16)"
         id="g14"><g
           transform="translate(211.1499,184.5996)"
           id="g20"><path
             id="path22"
             style="fill:#000000;fill-opacity:1;fill-rule:evenodd;stroke:none"
             d="m 0,0 c -1.133,4.934 -1.7,10.084 -1.7,15.45 0,18.234 6.433,33.8 19.3,46.7 12.9,12.867 28.467,19.3 46.7,19.3 0.839,0 1.672,-0.016 2.5,-0.05 17.158,-0.559 31.875,-6.975 44.15,-19.25 12.9,-12.9 19.35,-28.466 19.35,-46.7 0,-4.766 -0.433,-9.349 -1.3,-13.75 -1.534,0.2 -3.1,0.3 -4.7,0.3 -7.467,-0.1 -13.9,-2.6 -19.3,-7.5 -2.966,1 -6.117,1.483 -9.45,1.45 C 91.85,-4.116 88.4,-4.733 85.2,-5.899 80.004,-1.239 73.871,1.194 66.8,1.4 66.386,1.404 65.97,1.404 65.55,1.4 58.083,1.301 51.633,-1.183 46.2,-6.05 c -2.967,0.967 -6.117,1.417 -9.45,1.351 -3.667,-0.034 -7.1,-0.617 -10.3,-1.75 C 20.917,-1.517 14.333,0.884 6.7,0.75 4.367,0.75 2.133,0.5 0,0" /></g><g
           transform="translate(231.2002,151.75)"
           id="g24"><path
             id="path26"
             style="fill:none;stroke:#000000;stroke-width:2;stroke-linecap:round;stroke-linejoin:miter;stroke-miterlimit:3;stroke-dasharray:none;stroke-opacity:1"
             d="m 0,0 c 1.966,1.4 4.1,2.566 6.4,3.5 m -6.8,-3.8 c 0.133,0.1 0.267,0.2 0.4,0.3 -0.7,0.5 -1.417,0.95 -2.15,1.35 m -13.2,18.1 c 0.767,0.133 1.566,0.2 2.4,0.2 2.766,0 5.266,-0.584 7.5,-1.75 M 0,22.85 c -3.867,2.8 -8.284,4.15 -13.25,4.05 -1.733,0 -3.383,-0.183 -4.95,-0.55 m 71.55,-30.8 c 0.466,0.533 0.933,1.066 1.4,1.6 1.3,1.3 2.649,2.45 4.05,3.45 m 4.15,-15.8 c 0.533,0.834 1.166,1.634 1.9,2.4 0.766,0.734 1.566,1.4 2.4,2 1.934,1.333 4.05,2.166 6.35,2.5 0.733,0.133 1.5,0.184 2.299,0.15 0.201,0.034 0.417,0.016 0.651,-0.05 0.634,0 1.266,-0.05 1.9,-0.15 m -24.5,-8.7 c 0.866,3 2.4,5.75 4.6,8.25 0.3,0.434 0.634,0.833 1,1.2 1.333,1.333 2.733,2.466 4.2,3.4 1.967,1.233 4.083,2.167 6.35,2.8 1.733,0.4 3.549,0.617 5.45,0.65 1.533,0 3.016,-0.15 4.45,-0.45 2.033,-0.333 3.967,-0.95 5.8,-1.85 m -73.7,-6.5 c 0.866,0.3 1.767,0.517 2.7,0.65 0.766,0.1 1.533,0.15 2.3,0.15 0.233,0.033 0.45,0.033 0.65,0 2.367,0 4.55,-0.533 6.55,-1.6 1.4,-0.7 2.717,-1.65 3.95,-2.85 0.933,-0.833 1.683,-1.734 2.25,-2.7 0.1,-0.166 0.216,-0.35 0.35,-0.55 m 2.05,17.2 c 1.633,-1.066 3.183,-2.333 4.65,-3.8 0.433,-0.467 0.867,-0.917 1.3,-1.35 M 4.9,-4.75 c 2,1.233 4.133,2.15 6.4,2.75 1.766,0.4 3.6,0.6 5.5,0.6 1.5,0 2.967,-0.117 4.4,-0.35 2.366,-0.4 4.6,-1.184 6.7,-2.35 1.7,-0.966 3.35,-2.216 4.95,-3.75 0.267,-0.266 0.533,-0.55 0.8,-0.85 2.433,-2.633 4.133,-5.567 5.1,-8.8 m 8.149,-0.15 c 0.901,4.933 3.051,9.334 6.451,13.2 -2.016,1.096 -4.215,1.697 -6.6,1.8 -0.297,0.004 -0.598,0.004 -0.9,0 -2.567,-0.034 -4.9,-0.617 -7,-1.75 3.567,-3.9 5.85,-8.333 6.85,-13.3 M 32.9,23.6 c -2.167,1.334 -4.417,2.4 -6.75,3.2 M 43.7,11.3 c -1.2,2.6 -2.817,5 -4.85,7.2 M 3.45,5.85 C 4.483,5.15 5.466,4.366 6.4,3.5 9.6,4.667 13.033,5.267 16.7,5.3 20.033,5.366 23.183,4.917 26.15,3.95 M -3.25,9.2 c 2.333,-0.8 4.566,-1.917 6.7,-3.35 0.7,1.3 1.583,2.516 2.65,3.65 0.733,0.733 1.517,1.417 2.35,2.05 1.9,1.266 4.016,2.066 6.35,2.4 0.766,0.133 1.533,0.2 2.3,0.2 0.233,0.034 0.45,0.034 0.65,0 2.367,0 4.55,-0.534 6.55,-1.6 1.4,-0.7 2.717,-1.666 3.95,-2.9 0.867,-0.766 1.583,-1.6 2.15,-2.5 M 6.4,26.4 C 4.1,25.434 1.966,24.25 0,22.85 c -1.4,-1 -2.75,-2.15 -4.05,-3.45 -0.467,-0.5 -0.933,-1 -1.4,-1.5 -1.633,-1.933 -2.984,-3.983 -4.05,-6.15 -0.2,-0.366 -0.383,-0.75 -0.55,-1.15 0.2,0 0.383,-0.017 0.55,-0.05 2.167,-0.2 4.25,-0.65 6.25,-1.35 0.8,1.533 1.783,2.984 2.95,4.35 0.366,0.4 0.733,0.783 1.1,1.15 1.3,1.366 2.666,2.5 4.1,3.4 2,1.266 4.133,2.183 6.4,2.75 1.766,0.4 3.6,0.6 5.5,0.6 1.5,0 2.967,-0.1 4.4,-0.3 2.366,-0.4 4.6,-1.2 6.7,-2.4 1.7,-0.934 3.35,-2.184 4.95,-3.75 0.267,-0.267 0.533,-0.533 0.8,-0.8 1.2,-1.334 2.217,-2.733 3.05,-4.2 m 22.1,13.45 c -3.524,2.543 -7.54,3.902 -12.05,4.075 -0.396,0.019 -0.797,0.028 -1.2,0.025 -4.8,-0.033 -9.017,-1.35 -12.65,-3.95 1.633,-1.067 3.183,-2.333 4.65,-3.8 0.433,-0.467 0.867,-0.9 1.3,-1.3 2.1,1.1 4.433,1.667 7,1.7 0.302,0.004 0.603,0.004 0.9,0 2.385,-0.099 4.584,-0.683 6.6,-1.75 m 31.6,8.9 c 2.366,-0.734 4.616,-1.784 6.75,-3.15 M 65.149,4.05 C 68.35,5.25 71.8,5.884 75.5,5.95 78.833,5.983 81.983,5.5 84.95,4.5 m 4.25,3.2 c -1.5,-0.933 -2.917,-2 -4.25,-3.2 2.133,-0.667 4.166,-1.583 6.1,-2.75 m -42.25,9.5 c -0.684,0.063 -1.366,0.104 -2.05,0.125 -0.417,0.017 -0.834,0.025 -1.25,0.025 -0.601,0 -1.2,-0.034 -1.8,-0.1 -2.433,-0.166 -4.767,-0.6 -7,-1.3 -2.2,-0.667 -4.3,-1.616 -6.3,-2.85 -1.5,-0.933 -2.917,-2 -4.25,-3.2 2.333,-0.8 4.583,-1.867 6.75,-3.2 3.633,2.566 7.85,3.866 12.65,3.9 l 0.2,0 c 0.349,0 0.682,-0.016 1,-0.05 l 0.05,0 c 4.5,-0.166 8.5,-1.5 12,-4 1.967,1.4 4.083,2.55 6.349,3.45 C 64.217,4.917 63.233,5.7 62.2,6.4 m -6.6,3.4 c 2.299,-0.8 4.5,-1.934 6.6,-3.4 0.666,1.3 1.55,2.517 2.65,3.65 0.766,0.733 1.566,1.4 2.4,2 1.934,1.334 4.05,2.167 6.35,2.5 0.733,0.134 1.5,0.2 2.299,0.2 0.201,0 0.417,-0.017 0.651,-0.05 2.366,0 4.566,-0.516 6.599,-1.55 1.368,-0.733 2.684,-1.683 3.951,-2.85 0.799,-0.8 1.5,-1.666 2.1,-2.6 2,1.234 4.116,2.2 6.35,2.9 M 65.149,26.95 c -2.266,-0.933 -4.382,-2.1 -6.349,-3.5 -1.401,-1 -2.75,-2.134 -4.05,-3.4 -0.467,-0.567 -0.934,-1.1 -1.4,-1.6 -1.934,-2.233 -3.451,-4.634 -4.55,-7.2 2.366,-0.2 4.634,-0.684 6.8,-1.45 0.799,1.5 1.783,2.933 2.95,4.3 0.3,0.433 0.634,0.834 1,1.2 1.333,1.334 2.733,2.45 4.2,3.35 1.967,1.267 4.083,2.2 6.35,2.8 1.733,0.4 3.549,0.616 5.45,0.65 1.533,0 3.016,-0.133 4.45,-0.4 2.366,-0.4 4.583,-1.183 6.649,-2.35 1.767,-0.966 3.417,-2.234 4.951,-3.8 0.299,-0.267 0.6,-0.533 0.9,-0.8 1.2,-1.3 2.217,-2.684 3.05,-4.15 1.167,0.367 2.384,0.667 3.65,0.9 M 97.649,19 c 1.334,-1.434 2.484,-2.95 3.451,-4.55 m 6.15,13.5 c -0.967,0.1 -1.95,0.15 -2.95,0.15 -4.767,-0.067 -8.967,-1.367 -12.6,-3.9 1.633,-1.1 3.183,-2.384 4.65,-3.85 0.466,-0.4 0.9,-0.85 1.299,-1.35 2,1.134 4.267,1.717 6.801,1.75 m -124.5,12.1 c 2.133,0.5 4.366,0.75 6.7,0.75 7.633,0.133 14.217,-2.267 19.75,-7.2 3.2,1.133 6.633,1.716 10.3,1.75 3.333,0.067 6.483,-0.383 9.45,-1.35 5.433,4.867 11.883,7.35 19.35,7.45 0.42,0.004 0.836,0.004 1.25,0 7.07,-0.206 13.204,-2.64 18.399,-7.3 3.201,1.166 6.651,1.783 10.351,1.85 3.333,0.033 6.483,-0.45 9.45,-1.45 5.4,4.9 11.833,7.4 19.3,7.5 1.6,0 3.166,-0.1 4.7,-0.3" /></g><g
           transform="translate(330.9502,143)"
           id="g28"><path
             id="path30"
             style="fill:none;stroke:#000000;stroke-width:7;stroke-linecap:round;stroke-linejoin:miter;stroke-miterlimit:3;stroke-dasharray:none;stroke-opacity:1"
             d="m 0,0 c -15.334,-15.333 -33.834,-23 -55.5,-23 -21.667,0 -40.167,7.667 -55.5,23 -15.333,15.333 -23,33.833 -23,55.5 0,21.667 7.667,40.167 23,55.5 15.333,15.333 33.833,23 55.5,23 21.666,0 40.166,-7.667 55.5,-23 C 15.333,95.667 23,77.167 23,55.5 23,33.833 15.333,15.333 0,0 Z" /></g></g></g></g></svg>